<?xml version="1.0" encoding="UTF-8" standalone="no"?>
<svg width="1440px" height="507px" viewBox="0 0 1440 507" version="1.1" xmlns="http://www.w3.org/2000/svg" xmlns:xlink="http://www.w3.org/1999/xlink">
    <!-- Generator: Sketch 39.1 (31720) - http://www.bohemiancoding.com/sketch -->
    <title>Banner</title>
    <desc>Created with Sketch.</desc>
    <defs></defs>
    <g id="Page-1" stroke="none" stroke-width="1" fill="none" fill-rule="evenodd">
        <g id="Banner">
            <g id="Logo" transform="translate(373.000000, 180.000000)">
                <text id="mini" font-family="Nobile-BoldItalic, Nobile" font-size="72" font-style="italic" font-weight="bold" letter-spacing="-2.17499995" fill="#FFA38E">
                    <tspan x="600.682031" y="135">mini</tspan>
                </text>
                <path d="M559.016616,104.418958 C554.868029,111.690224 548.475096,116.440353 542.329006,116.440353 C534.995083,116.440353 533.203448,108.244165 533.901908,97.2081441 L560.545468,97.2081441 L581.05485,97.2081441 C582.215488,92.8150205 582.926831,88.6229093 583.242638,84.9817505 C584.873413,66.1794186 576.164262,41 552.212117,41 C528.259973,41 513.170705,61.8068858 510.575398,89.6972656 C507.980091,117.587645 513.596153,137.277649 539.30709,137.277649 C555.266656,137.277649 566.189184,127.878401 573.175078,116.243115 L559.016616,104.418958 Z M536.703968,79.2316424 C539.176292,70.2397621 543.234958,65 550.170035,65 C556.794587,65 558.407793,70.5427788 558.004696,79.2316424 L536.703968,79.2316424 Z M504.047203,74.5015766 C508.042597,52.4581102 504.347119,41.4550781 486.489259,41.4550781 C478.96844,41.4550781 472.33071,44.0462626 466.754334,48.7285388 L467.679688,43.28125 L440.62793,43.28125 L424,135.583008 L452,135.583008 L463.252444,69.3431458 C465.066434,65.9824417 466.787401,64.833671 471.888672,64.8056641 C476.130196,64.7823773 477.414402,67.5346276 477.478475,71.8659082 L466,135.583008 L494,135.583008 L504.047203,74.5015766 Z M295.640163,131.716018 C290.298412,135.33129 284.586344,137.384766 278.96875,137.384766 C260.846681,137.384766 256.399172,117.034307 260.883789,90.8007812 C265.368406,64.5672556 276.484375,41.1601562 296.03418,41.1601562 C301.932248,41.1601562 306.922988,43.1978633 310.893883,46.7641228 L315.692383,20.0400391 L344.842773,12.1298828 L323,135.28125 L295,135.28125 L295.640163,131.716018 Z M307.207101,67.2967598 C305.635673,65.3736023 303.49093,64.28125 300.704463,64.28125 C291.784902,64.28125 290.160156,81.4677734 288.167969,91.4501953 C286.175781,101.432617 284.762695,114.28125 293.506574,114.28125 C295.534703,114.28125 297.386764,113.70805 299.061615,112.661068 L307.207101,67.2967598 Z M64.0319014,83.8831019 L54.7839506,135.386188 L84.1900232,135.386188 L106.294881,12.28125 L76.8888085,12.28125 L68.7686566,57.5034722 L43.3907786,57.5034722 L51.5109304,12.28125 L22.1048579,12.28125 L0,135.386188 L29.4060726,135.386188 L38.6540233,83.8831019 L64.0319014,83.8831019 Z M174.638673,84.7792969 C177.23398,56.888917 167.569332,40.0029297 143.617188,40.0029297 C119.665043,40.0029297 104.575776,60.8098154 101.980469,88.7001953 C99.3851619,116.590575 104.992188,137.075195 130.703125,137.075195 C160.830078,137.075195 172.043366,112.669677 174.638673,84.7792969 Z M141.790215,63.8643565 C134.263047,63.8643565 130.865929,73.034155 129.148438,87.929687 C127.430946,102.825219 126.46582,114.916992 133.890625,114.916992 C141.790215,114.916992 145.523719,104.286206 147.241211,89.3906741 C148.958703,74.4951421 149.317383,63.8643565 141.790215,63.8643565 Z M254.233602,85.0576172 C256.828909,57.1672373 247.164262,40.28125 223.212117,40.28125 C199.259973,40.28125 184.170705,61.0881358 181.575398,88.9785156 C178.980091,116.868895 184.587117,137.353516 210.298054,137.353516 C240.425008,137.353516 251.638296,112.947997 254.233602,85.0576172 Z M221.385144,64.1426768 C213.857976,64.1426768 210.460859,73.3124753 208.743367,88.2080073 C207.025875,103.103539 206.06075,115.195312 213.485554,115.195312 C221.385145,115.195312 225.118649,104.564526 226.836141,89.6689944 C228.553632,74.7734624 228.912313,64.1426768 221.385144,64.1426768 Z M389.391602,0 L366,135.28125 L338,135.28125 L361.169922,7.93261719 L389.391602,0 Z M424.679688,43.2607422 L409,135.5625 L381,135.5625 L397.62793,43.2607422 L424.679688,43.2607422 Z M415,34.171875 C424.805664,34.171875 430,28.5655212 430,20.28125 C430,11.9969788 423.284271,6.63476562 415,6.63476562 C406.715729,6.63476562 400,11.9969788 400,20.28125 C400,28.5655212 405.194336,34.171875 415,34.171875 Z" id="Hoodline" fill="#FF3000"></path>
            </g>
            <g id="Icon" transform="translate(306.000000, 165.000000)">
                <polygon id="bg" fill="#FFFFFF" points="148.21973 178 0 178 29.7802699 0 178 0"></polygon>
                <polygon id="bg-copy" fill="#FF3000" points="144.061041 178 6.25 178 33.9389588 0 171.75 0"></polygon>
                <path d="M100.572478,98.8888889 L91.4722222,149.569444 L120.408665,149.569444 L142.160497,28.4305556 L113.224054,28.4305556 L105.233585,72.9305556 L77.3089165,72.9305556 L85.2993854,28.4305556 L56.362943,28.4305556 L34.6111111,149.569444 L63.5475535,149.569444 L72.6478097,98.8888889 L100.572478,98.8888889 Z" id="H" fill="#FFFFFF"></path>
            </g>
        </g>
    </g>
</svg>